REM DIRINDEX 1\2,1\3,1\4,1\5
REM DIRNAME folder01,folder02,folder03,folder04,folder05
TITLE ""
FILE "1Q_t_0900-0909.mp3" MP3
  TRACK 01 AUDIO
    TITLE "3:cjc004_3603"
    INDEX 01 00:00:00
  TRACK 02 AUDIO
    TITLE "0:"
    INDEX 01 00:01:03
  TRACK 03 AUDIO
    TITLE "4:cjc004_3604"
    INDEX 01 00:01:38
  TRACK 04 AUDIO
    TITLE "0:"
    INDEX 01 00:02:69
  TRACK 05 AUDIO
    TITLE "5:cjc004_3605"
    INDEX 01 00:03:17
  TRACK 06 AUDIO
    TITLE "0:"
    INDEX 01 00:07:29
  TRACK 07 AUDIO
    TITLE "3:cjc004_3606"
    INDEX 01 00:08:07
  TRACK 08 AUDIO
    TITLE "0:"
    INDEX 01 00:09:08
  TRACK 09 AUDIO
    TITLE "4:cjc004_3607"
    INDEX 01 00:09:42
  TRACK 10 AUDIO
    TITLE "0:"
    INDEX 01 00:10:53
  TRACK 11 AUDIO
    TITLE "5:cjc004_3608"
    INDEX 01 00:11:03
  TRACK 12 AUDIO
    TITLE "0:"
    INDEX 01 00:14:60
  TRACK 13 AUDIO
    TITLE "3:cjc004_3609"
    INDEX 01 00:15:30
  TRACK 14 AUDIO
    TITLE "0:"
    INDEX 01 00:16:36
  TRACK 15 AUDIO
    TITLE "4:cjc004_3610"
    INDEX 01 00:16:61
  TRACK 16 AUDIO
    TITLE "0:"
    INDEX 01 00:18:11
  TRACK 17 AUDIO
    TITLE "5:cjc004_3611"
    INDEX 01 00:18:39
  TRACK 18 AUDIO
    TITLE "0:"
    INDEX 01 00:23:24
  TRACK 19 AUDIO
    TITLE "3:cjc004_3612"
    INDEX 01 00:24:06
  TRACK 20 AUDIO
    TITLE "0:"
    INDEX 01 00:25:09
  TRACK 21 AUDIO
    TITLE "4:cjc004_3613"
    INDEX 01 00:25:41
  TRACK 22 AUDIO
    TITLE "0:"
    INDEX 01 00:26:66
  TRACK 23 AUDIO
    TITLE "5:cjc004_3614"
    INDEX 01 00:27:12
  TRACK 24 AUDIO
    TITLE "0:"
    INDEX 01 00:31:20
  TRACK 25 AUDIO
    TITLE "3:cjc004_3615"
    INDEX 01 00:31:71
  TRACK 26 AUDIO
    TITLE "0:"
    INDEX 01 00:32:74
  TRACK 27 AUDIO
    TITLE "4:cjc004_3616"
    INDEX 01 00:33:26
  TRACK 28 AUDIO
    TITLE "0:"
    INDEX 01 00:35:06
  TRACK 29 AUDIO
    TITLE "5:cjc004_3617"
    INDEX 01 00:35:33
  TRACK 30 AUDIO
    TITLE "0:"
    INDEX 01 00:40:66
  TRACK 31 AUDIO
    TITLE "3:cjc004_3618"
    INDEX 01 00:41:49
  TRACK 32 AUDIO
    TITLE "0:"
    INDEX 01 00:42:57
  TRACK 33 AUDIO
    TITLE "4:cjc004_3619"
    INDEX 01 00:43:07
  TRACK 34 AUDIO
    TITLE "0:"
    INDEX 01 00:44:24
  TRACK 35 AUDIO
    TITLE "5:cjc004_3620"
    INDEX 01 00:44:46
  TRACK 36 AUDIO
    TITLE "0:"
    INDEX 01 00:49:06
  TRACK 37 AUDIO
    TITLE "3:cjc004_3621"
    INDEX 01 00:49:61
  TRACK 38 AUDIO
    TITLE "0:"
    INDEX 01 00:50:54
  TRACK 39 AUDIO
    TITLE "4:cjc004_3622"
    INDEX 01 00:51:09
  TRACK 40 AUDIO
    TITLE "0:"
    INDEX 01 00:52:39
  TRACK 41 AUDIO
    TITLE "5:cjc004_3623"
    INDEX 01 00:52:67
  TRACK 42 AUDIO
    TITLE "0:"
    INDEX 01 00:56:63
  TRACK 43 AUDIO
    TITLE "3:cjc004_3624"
    INDEX 01 00:57:37
  TRACK 44 AUDIO
    TITLE "0:"
    INDEX 01 00:58:30
  TRACK 45 AUDIO
    TITLE "4:cjc004_3625"
    INDEX 01 00:58:58
  TRACK 46 AUDIO
    TITLE "0:"
    INDEX 01 01:00:45
  TRACK 47 AUDIO
    TITLE "5:cjc004_3626"
    INDEX 01 01:00:72
  TRACK 48 AUDIO
    TITLE "0:"
    INDEX 01 01:04:60
  TRACK 49 AUDIO
    TITLE "3:cjc004_3627"
    INDEX 01 01:05:38
  TRACK 50 AUDIO
    TITLE "0:"
    INDEX 01 01:06:53
  TRACK 51 AUDIO
    TITLE "4:cjc004_3628"
    INDEX 01 01:07:08
  TRACK 52 AUDIO
    TITLE "0:"
    INDEX 01 01:08:29
  TRACK 53 AUDIO
    TITLE "5:cjc004_3629"
    INDEX 01 01:08:54
  TRACK 54 AUDIO
    TITLE "0:"
    INDEX 01 01:12:48
  TRACK 55 AUDIO
    TITLE "3:cjc004_3630"
    INDEX 01 01:13:24
  TRACK 56 AUDIO
    TITLE "0:"
    INDEX 01 01:14:39
  TRACK 57 AUDIO
    TITLE "4:cjc004_3631"
    INDEX 01 01:14:70
  TRACK 58 AUDIO
    TITLE "0:"
    INDEX 01 01:15:62
  TRACK 59 AUDIO
    TITLE "5:cjc004_3632"
    INDEX 01 01:16:16
  TRACK 60 AUDIO
    TITLE "0:"
    INDEX 01 01:21:06
